<svg width="128" height="128" viewBox="0 0 128 128" fill="none" xmlns="http://www.w3.org/2000/svg">
<g clip-path="url(#clip0_203_137)">
<path d="M0 64C0 28.6538 28.6538 0 64 0V0C99.3462 0 128 28.6538 128 64V64C128 99.3462 99.3462 128 64 128H10.9714C6.30766 128 3.97578 128 2.36526 126.774C1.93612 126.447 1.553 126.064 1.22625 125.635C0 124.024 0 121.692 0 117.029V64Z" fill="url(#paint0_linear_203_137)"/>
<path d="M49.094 108.499C51.076 110.5 54.2895 110.5 56.2715 108.499C58.2534 106.497 58.2534 103.251 56.2715 101.249L34.7391 79.4995C32.7572 77.4975 32.7572 74.2517 34.7391 72.2497C36.7211 70.2478 39.9346 70.2478 41.9166 72.2497L63.4489 93.999C65.4309 96.001 68.6443 96.001 70.6263 93.999C72.6083 91.9971 72.6083 88.7512 70.6263 86.7493L49.094 65C47.112 62.998 47.112 59.7522 49.094 57.7502C51.076 55.7483 54.2895 55.7483 56.2715 57.7502L74.215 75.8746C78.179 79.8786 84.6059 79.8786 88.5699 75.8746L106.514 57.7502C108.495 55.7483 108.495 52.5024 106.514 50.5005C104.532 48.4985 101.318 48.4985 99.3361 50.5005L84.9812 65C82.9992 67.0019 79.7857 67.0019 77.8038 65C75.8218 62.998 75.8218 59.7522 77.8038 57.7502L92.1586 43.2507C94.1406 41.2487 94.1406 38.0029 92.1586 36.0009C90.1766 33.999 86.9632 33.999 84.9812 36.0009L70.6263 50.5005C68.6443 52.5024 65.4309 52.5024 63.4489 50.5005C61.4669 48.4985 61.4669 45.2527 63.4489 43.2507L77.8037 28.7512C79.7857 26.7493 79.7857 23.5034 77.8037 21.5015C75.8217 19.4995 72.6083 19.4995 70.6263 21.5015L23.973 68.6249C20.009 72.6288 20.009 79.1205 23.973 83.1244L49.094 108.499Z" fill="white"/>
</g>
<defs>
<linearGradient id="paint0_linear_203_137" x1="64" y1="0" x2="64" y2="128" gradientUnits="userSpaceOnUse">
<stop stop-color="#9297C1"/>
<stop offset="1" stop-color="#6C84A7"/>
</linearGradient>
<clipPath id="clip0_203_137">
<rect width="128" height="128" fill="white"/>
</clipPath>
</defs>
</svg>
