<?xml version="1.0" encoding="UTF-8" standalone="no"?>
<!-- Created with Inkscape (http://www.inkscape.org/) -->

<svg
   xmlns:dc="http://purl.org/dc/elements/1.1/"
   xmlns:cc="http://creativecommons.org/ns#"
   xmlns:rdf="http://www.w3.org/1999/02/22-rdf-syntax-ns#"
   xmlns:svg="http://www.w3.org/2000/svg"
   xmlns="http://www.w3.org/2000/svg"
   xmlns:xlink="http://www.w3.org/1999/xlink"
   xmlns:sodipodi="http://sodipodi.sourceforge.net/DTD/sodipodi-0.dtd"
   xmlns:inkscape="http://www.inkscape.org/namespaces/inkscape"
   width="300"
   height="300"
   id="svg10042"
   version="1.1"
   inkscape:version="0.48.2 r9819"
   sodipodi:docname="gspot.svg"
   inkscape:export-filename="/Users/maebert/projects/portwempreludium/media/thumbs/gspot.png"
   inkscape:export-xdpi="90"
   inkscape:export-ydpi="90">
  <defs
     id="defs10044">
    <linearGradient
       inkscape:collect="always"
       id="linearGradient11767">
      <stop
         style="stop-color:#000000;stop-opacity:0.14009662"
         offset="0"
         id="stop11769" />
      <stop
         style="stop-color:#000000;stop-opacity:0;"
         offset="1"
         id="stop11771" />
    </linearGradient>
    <linearGradient
       gradientTransform="translate(-20,0)"
       y2="1077.0557"
       x2="-10.550559"
       y1="1042.2606"
       x1="-10.550559"
       gradientUnits="userSpaceOnUse"
       id="linearGradient11733"
       xlink:href="#linearGradient11511"
       inkscape:collect="always" />
    <linearGradient
       gradientTransform="translate(-20,0)"
       y2="1124.6863"
       x2="32.401588"
       y1="999.74817"
       x1="32.401588"
       gradientUnits="userSpaceOnUse"
       id="linearGradient11731"
       xlink:href="#linearGradient11475"
       inkscape:collect="always" />
    <linearGradient
       gradientTransform="translate(-20,0)"
       y2="1081.1179"
       x2="-39.283997"
       y1="1000.9562"
       x1="-39.283997"
       gradientUnits="userSpaceOnUse"
       id="linearGradient11729"
       xlink:href="#linearGradient11491"
       inkscape:collect="always" />
    <linearGradient
       gradientTransform="translate(20,0)"
       y2="1150.4989"
       x2="395.87592"
       y1="1000.9332"
       x1="395.87592"
       gradientUnits="userSpaceOnUse"
       id="linearGradient11727"
       xlink:href="#linearGradient11355"
       inkscape:collect="always" />
    <linearGradient
       y2="1156.9758"
       x2="-44.895996"
       y1="1089.4014"
       x1="-44.895996"
       gradientUnits="userSpaceOnUse"
       id="linearGradient11603"
       xlink:href="#linearGradient11501"
       inkscape:collect="always" />
    <linearGradient
       y2="1077.0557"
       x2="-10.550559"
       y1="1042.2606"
       x1="-10.550559"
       gradientUnits="userSpaceOnUse"
       id="linearGradient11580"
       xlink:href="#linearGradient11511"
       inkscape:collect="always" />
    <linearGradient
       gradientTransform="matrix(1.3326561,0,0,1,3.368146,-2)"
       y2="1077.0557"
       x2="-10.550559"
       y1="1042.2606"
       x1="-10.550559"
       gradientUnits="userSpaceOnUse"
       id="linearGradient11576"
       xlink:href="#linearGradient11511"
       inkscape:collect="always" />
    <linearGradient
       y2="1156.9758"
       x2="-44.895996"
       y1="1089.4014"
       x1="-44.895996"
       gradientUnits="userSpaceOnUse"
       id="linearGradient11571"
       xlink:href="#linearGradient11501"
       inkscape:collect="always" />
    <linearGradient
       gradientTransform="translate(0,2)"
       y2="1156.9758"
       x2="-44.895996"
       y1="1089.4014"
       x1="-44.895996"
       gradientUnits="userSpaceOnUse"
       id="linearGradient11569"
       xlink:href="#linearGradient11501"
       inkscape:collect="always" />
    <linearGradient
       y2="1081.1179"
       x2="-39.283997"
       y1="1000.9562"
       x1="-39.283997"
       gradientUnits="userSpaceOnUse"
       id="linearGradient11562"
       xlink:href="#linearGradient11491"
       inkscape:collect="always" />
    <linearGradient
       gradientTransform="translate(0,2)"
       y2="1081.1179"
       x2="-39.283997"
       y1="1000.9562"
       x1="-39.283997"
       gradientUnits="userSpaceOnUse"
       id="linearGradient11560"
       xlink:href="#linearGradient11491"
       inkscape:collect="always" />
    <linearGradient
       gradientTransform="translate(-200,0)"
       y2="1110.4937"
       x2="190.80798"
       y1="1160.5615"
       x1="190.80798"
       gradientUnits="userSpaceOnUse"
       id="linearGradient11523"
       xlink:href="#linearGradient11525"
       inkscape:collect="always" />
    <linearGradient
       gradientUnits="userSpaceOnUse"
       y2="1077.0557"
       x2="-10.550559"
       y1="1042.2606"
       x1="-10.550559"
       id="linearGradient11517"
       xlink:href="#linearGradient11511"
       inkscape:collect="always" />
    <linearGradient
       gradientTransform="translate(-20,0)"
       gradientUnits="userSpaceOnUse"
       y2="1156.9758"
       x2="-44.895996"
       y1="1089.4014"
       x1="-44.895996"
       id="linearGradient11507"
       xlink:href="#linearGradient11501"
       inkscape:collect="always" />
    <linearGradient
       gradientUnits="userSpaceOnUse"
       y2="1081.1179"
       x2="-39.283997"
       y1="1000.9562"
       x1="-39.283997"
       id="linearGradient11497"
       xlink:href="#linearGradient11491"
       inkscape:collect="always" />
    <linearGradient
       gradientUnits="userSpaceOnUse"
       y2="1124.6863"
       x2="32.401588"
       y1="999.74817"
       x1="32.401588"
       id="linearGradient11481"
       xlink:href="#linearGradient11475"
       inkscape:collect="always" />
    <linearGradient
       gradientUnits="userSpaceOnUse"
       y2="1086.9594"
       x2="-11.44848"
       y1="1041.5872"
       x1="-11.44848"
       id="linearGradient11473"
       xlink:href="#linearGradient11467"
       inkscape:collect="always" />
    <linearGradient
       gradientUnits="userSpaceOnUse"
       y2="1168.6432"
       x2="-39.067425"
       y1="1081.5446"
       x1="-62.405437"
       id="linearGradient11465"
       xlink:href="#linearGradient11459"
       inkscape:collect="always" />
    <linearGradient
       gradientUnits="userSpaceOnUse"
       y2="1124.8694"
       x2="31.876158"
       y1="1004.7724"
       x1="31.876158"
       id="linearGradient11457"
       xlink:href="#linearGradient11451"
       inkscape:collect="always" />
    <linearGradient
       gradientUnits="userSpaceOnUse"
       y2="1089.8602"
       x2="-31.876158"
       y1="1006.1193"
       x1="-31.876158"
       id="linearGradient11449"
       xlink:href="#linearGradient11443"
       inkscape:collect="always" />
    <linearGradient
       gradientTransform="translate(20,0)"
       gradientUnits="userSpaceOnUse"
       y2="1087.918"
       x2="419.52689"
       y1="1076.3307"
       x1="417.78085"
       id="linearGradient11397"
       xlink:href="#linearGradient11391"
       inkscape:collect="always" />
    <linearGradient
       gradientTransform="translate(20,0)"
       gradientUnits="userSpaceOnUse"
       y2="1047.7513"
       x2="397.62195"
       y1="1026.3302"
       x1="397.62195"
       id="linearGradient11389"
       xlink:href="#linearGradient11383"
       inkscape:collect="always" />
    <linearGradient
       gradientUnits="userSpaceOnUse"
       y2="1150.4989"
       x2="395.87592"
       y1="1000.9332"
       x1="395.87592"
       id="linearGradient11361"
       xlink:href="#linearGradient11355"
       inkscape:collect="always" />
    <linearGradient
       gradientTransform="translate(220,0)"
       y2="1122.5084"
       x2="187.78062"
       y1="1157.2836"
       x1="187.78062"
       gradientUnits="userSpaceOnUse"
       id="linearGradient11347"
       xlink:href="#linearGradient11349"
       inkscape:collect="always" />
    <linearGradient
       gradientUnits="userSpaceOnUse"
       y2="1110.4937"
       x2="190.80798"
       y1="1160.5615"
       x1="190.80798"
       id="linearGradient11338"
       xlink:href="#linearGradient11332"
       inkscape:collect="always" />
    <linearGradient
       y2="1158.5348"
       x2="187.66672"
       y1="995.08081"
       x1="187.66672"
       gradientUnits="userSpaceOnUse"
       id="linearGradient11303"
       xlink:href="#linearGradient11305"
       inkscape:collect="always" />
    <linearGradient
       inkscape:collect="always"
       id="linearGradient11305">
      <stop
         style="stop-color:#ff7f7e;stop-opacity:1"
         offset="0"
         id="stop11307" />
      <stop
         id="stop11309"
         offset="0.50258023"
         style="stop-color:#cd1112;stop-opacity:1" />
      <stop
         style="stop-color:#860605;stop-opacity:1;"
         offset="0.94087654"
         id="stop11313" />
      <stop
         style="stop-color:#7d0504;stop-opacity:1"
         offset="1"
         id="stop11311" />
    </linearGradient>
    <linearGradient
       id="linearGradient11332"
       inkscape:collect="always">
      <stop
         id="stop11334"
         offset="0"
         style="stop-color:#dd3334;stop-opacity:1;" />
      <stop
         id="stop11336"
         offset="1"
         style="stop-color:#dd3334;stop-opacity:0;" />
    </linearGradient>
    <linearGradient
       inkscape:collect="always"
       id="linearGradient11349">
      <stop
         style="stop-color:#1191ca;stop-opacity:1"
         offset="0"
         id="stop11351" />
      <stop
         style="stop-color:#1299d5;stop-opacity:0"
         offset="1"
         id="stop11353" />
    </linearGradient>
    <linearGradient
       id="linearGradient11355"
       inkscape:collect="always">
      <stop
         id="stop11357"
         offset="0"
         style="stop-color:#82caea;stop-opacity:1" />
      <stop
         style="stop-color:#1299d5;stop-opacity:1"
         offset="0.52851838"
         id="stop11363" />
      <stop
         id="stop11359"
         offset="1"
         style="stop-color:#0e76a4;stop-opacity:1" />
    </linearGradient>
    <linearGradient
       id="linearGradient11383"
       inkscape:collect="always">
      <stop
         id="stop11385"
         offset="0"
         style="stop-color:#0d6e98;stop-opacity:1;" />
      <stop
         id="stop11387"
         offset="1"
         style="stop-color:#0d6e98;stop-opacity:0;" />
    </linearGradient>
    <linearGradient
       id="linearGradient11391"
       inkscape:collect="always">
      <stop
         id="stop11393"
         offset="0"
         style="stop-color:#0d6e98;stop-opacity:1;" />
      <stop
         id="stop11395"
         offset="1"
         style="stop-color:#0d6e98;stop-opacity:0;" />
    </linearGradient>
    <linearGradient
       id="linearGradient11443"
       inkscape:collect="always">
      <stop
         id="stop11445"
         offset="0"
         style="stop-color:#ffffff;stop-opacity:1;" />
      <stop
         id="stop11447"
         offset="1"
         style="stop-color:#ffffff;stop-opacity:0;" />
    </linearGradient>
    <linearGradient
       id="linearGradient11451"
       inkscape:collect="always">
      <stop
         id="stop11453"
         offset="0"
         style="stop-color:#ffffff;stop-opacity:1;" />
      <stop
         id="stop11455"
         offset="1"
         style="stop-color:#ffffff;stop-opacity:0;" />
    </linearGradient>
    <linearGradient
       id="linearGradient11459"
       inkscape:collect="always">
      <stop
         id="stop11461"
         offset="0"
         style="stop-color:#ffffff;stop-opacity:1;" />
      <stop
         id="stop11463"
         offset="1"
         style="stop-color:#ffffff;stop-opacity:0;" />
    </linearGradient>
    <linearGradient
       id="linearGradient11467"
       inkscape:collect="always">
      <stop
         id="stop11469"
         offset="0"
         style="stop-color:#ffffff;stop-opacity:1;" />
      <stop
         id="stop11471"
         offset="1"
         style="stop-color:#ffffff;stop-opacity:0;" />
    </linearGradient>
    <linearGradient
       id="linearGradient11475"
       inkscape:collect="always">
      <stop
         id="stop11477"
         offset="0"
         style="stop-color:#faefbe;stop-opacity:1" />
      <stop
         style="stop-color:#fad000;stop-opacity:1"
         offset="0.41752717"
         id="stop11483" />
      <stop
         id="stop11479"
         offset="1"
         style="stop-color:#df9800;stop-opacity:1" />
    </linearGradient>
    <linearGradient
       id="linearGradient11491"
       inkscape:collect="always">
      <stop
         id="stop11493"
         offset="0"
         style="stop-color:#e65f59;stop-opacity:1" />
      <stop
         style="stop-color:#e03730;stop-opacity:1"
         offset="0.48165926"
         id="stop11499" />
      <stop
         id="stop11495"
         offset="1"
         style="stop-color:#ad201a;stop-opacity:1" />
    </linearGradient>
    <linearGradient
       id="linearGradient11501"
       inkscape:collect="always">
      <stop
         id="stop11503"
         offset="0"
         style="stop-color:#7dca7e;stop-opacity:1" />
      <stop
         style="stop-color:#4bb64c;stop-opacity:1"
         offset="0.47171921"
         id="stop11509" />
      <stop
         id="stop11505"
         offset="1"
         style="stop-color:#249425;stop-opacity:1" />
    </linearGradient>
    <linearGradient
       id="linearGradient11511"
       inkscape:collect="always">
      <stop
         id="stop11513"
         offset="0"
         style="stop-color:#67a4d4;stop-opacity:1" />
      <stop
         style="stop-color:#3886c4;stop-opacity:1"
         offset="0.50966692"
         id="stop11519" />
      <stop
         id="stop11515"
         offset="1"
         style="stop-color:#2e6da0;stop-opacity:1" />
    </linearGradient>
    <linearGradient
       inkscape:collect="always"
       id="linearGradient11525">
      <stop
         style="stop-color:#000000;stop-opacity:0.19747899"
         offset="0"
         id="stop11527" />
      <stop
         style="stop-color:#000000;stop-opacity:0"
         offset="1"
         id="stop11529" />
    </linearGradient>
    <linearGradient
       y2="-278.33432"
       x2="269.55377"
       y1="-360.8486"
       x1="82.868324"
       gradientUnits="userSpaceOnUse"
       id="linearGradient4622"
       xlink:href="#linearGradient4580"
       inkscape:collect="always" />
    <linearGradient
       y2="-209.3125"
       x2="308.90625"
       y1="-209.3125"
       x1="141.18275"
       gradientUnits="userSpaceOnUse"
       id="linearGradient4620"
       xlink:href="#linearGradient4588"
       inkscape:collect="always" />
    <linearGradient
       y2="-331.00116"
       x2="187.06506"
       y1="-331.00116"
       x1="79.716728"
       gradientUnits="userSpaceOnUse"
       id="linearGradient4618"
       xlink:href="#linearGradient4588"
       inkscape:collect="always" />
    <linearGradient
       gradientUnits="userSpaceOnUse"
       y2="-209.3125"
       x2="308.90625"
       y1="-209.3125"
       x1="141.18275"
       id="linearGradient4611"
       xlink:href="#linearGradient4588"
       inkscape:collect="always" />
    <linearGradient
       y2="-331.00116"
       x2="187.06506"
       y1="-331.00116"
       x1="79.716728"
       gradientUnits="userSpaceOnUse"
       id="linearGradient4603"
       xlink:href="#linearGradient4588"
       inkscape:collect="always" />
    <linearGradient
       gradientUnits="userSpaceOnUse"
       y2="-244.61047"
       x2="286.60947"
       y1="-331.00116"
       x1="79.716728"
       id="linearGradient4594"
       xlink:href="#linearGradient4588"
       inkscape:collect="always" />
    <linearGradient
       gradientUnits="userSpaceOnUse"
       y2="-278.33432"
       x2="269.55377"
       y1="-360.8486"
       x1="82.868324"
       id="linearGradient4586"
       xlink:href="#linearGradient4580"
       inkscape:collect="always" />
    <linearGradient
       gradientUnits="userSpaceOnUse"
       y2="795.04462"
       x2="244.08263"
       y1="797.42712"
       x1="242.24159"
       id="linearGradient4082"
       xlink:href="#linearGradient4076"
       inkscape:collect="always" />
    <clipPath
       id="clipPath4034"
       clipPathUnits="userSpaceOnUse">
      <path
         style="fill:#b11515;fill-opacity:1;stroke:none"
         d="m 386.62905,209.59755 c -30.9786,0 -61.92912,11.77036 -85.565,35.40621 -43.15817,43.15805 -46.91949,110.84697 -11.27249,158.26878 l 96.83749,146.92063 96.8375,-146.92063 c 16.11603,-21.4391 24.19356,-47.06157 24.20937,-72.62812 0,-13.37035 -10.8389,-24.20938 -24.20937,-24.20938 l -72.62812,0 c -13.37048,0 -24.20938,10.83903 -24.20938,24.20938 0,13.37035 10.8389,24.20937 24.20938,24.20937 l 44.93865,0 c -3.47824,10.07715 -9.20707,19.57183 -17.24918,27.6137 -12.1197,12.11994 -27.46343,19.04309 -43.27426,20.80505 l -16.19002,0 c -15.81082,-1.7622 -31.15456,-8.68511 -43.27425,-20.80505 -28.36305,-28.36249 -28.36305,-74.29978 0,-102.66276 14.18151,-14.1816 32.7821,-21.33451 51.36926,-21.33451 18.33795,0 36.65653,6.99966 50.76403,20.80481 l 0.0755,0 c 9.45434,9.45449 24.74139,9.45449 34.19574,0 9.45434,-9.45424 9.45434,-24.81703 0,-34.27127 -0.59091,-0.59095 -1.18178,-1.14728 -1.81571,-1.66439 -23.40119,-22.48591 -53.53215,-33.74182 -83.74918,-33.74182 z"
         id="path4036"
         inkscape:connector-curvature="0" />
    </clipPath>
    <linearGradient
       id="linearGradient4076"
       inkscape:collect="always">
      <stop
         id="stop4078"
         offset="0"
         style="stop-color:#cccccc;stop-opacity:1;" />
      <stop
         id="stop4080"
         offset="1"
         style="stop-color:#cccccc;stop-opacity:0;" />
    </linearGradient>
    <linearGradient
       id="linearGradient4580"
       inkscape:collect="always">
      <stop
         id="stop4582"
         offset="0"
         style="stop-color:#b73434;stop-opacity:1" />
      <stop
         id="stop4584"
         offset="1"
         style="stop-color:#b13131;stop-opacity:1" />
    </linearGradient>
    <linearGradient
       id="linearGradient4588"
       inkscape:collect="always">
      <stop
         id="stop4590"
         offset="0"
         style="stop-color:#962828;stop-opacity:1" />
      <stop
         id="stop4592"
         offset="1"
         style="stop-color:#af2f2f;stop-opacity:1" />
    </linearGradient>
    <linearGradient
       inkscape:collect="always"
       xlink:href="#linearGradient11767"
       id="linearGradient11773"
       x1="376.94601"
       y1="1837.646"
       x2="218.20468"
       y2="1861.3387"
       gradientUnits="userSpaceOnUse" />
    <linearGradient
       y2="-278.33432"
       x2="269.55377"
       y1="-360.8486"
       x1="82.868324"
       gradientUnits="userSpaceOnUse"
       id="linearGradient4622-4"
       xlink:href="#linearGradient4580-7"
       inkscape:collect="always" />
    <linearGradient
       y2="-209.3125"
       x2="308.90625"
       y1="-209.3125"
       x1="141.18275"
       gradientUnits="userSpaceOnUse"
       id="linearGradient4620-5"
       xlink:href="#linearGradient4588-4"
       inkscape:collect="always" />
    <linearGradient
       y2="-331.00116"
       x2="187.06506"
       y1="-331.00116"
       x1="79.716728"
       gradientUnits="userSpaceOnUse"
       id="linearGradient4618-9"
       xlink:href="#linearGradient4588-4"
       inkscape:collect="always" />
    <linearGradient
       gradientUnits="userSpaceOnUse"
       y2="-209.3125"
       x2="308.90625"
       y1="-209.3125"
       x1="141.18275"
       id="linearGradient4611-5"
       xlink:href="#linearGradient4588-4"
       inkscape:collect="always" />
    <linearGradient
       y2="-331.00116"
       x2="187.06506"
       y1="-331.00116"
       x1="79.716728"
       gradientUnits="userSpaceOnUse"
       id="linearGradient4603-6"
       xlink:href="#linearGradient4588-4"
       inkscape:collect="always" />
    <linearGradient
       gradientUnits="userSpaceOnUse"
       y2="-244.61047"
       x2="286.60947"
       y1="-331.00116"
       x1="79.716728"
       id="linearGradient4594-3"
       xlink:href="#linearGradient4588-4"
       inkscape:collect="always" />
    <linearGradient
       gradientUnits="userSpaceOnUse"
       y2="-278.33432"
       x2="269.55377"
       y1="-360.8486"
       x1="82.868324"
       id="linearGradient4586-4"
       xlink:href="#linearGradient4580-7"
       inkscape:collect="always" />
    <linearGradient
       gradientUnits="userSpaceOnUse"
       y2="795.04462"
       x2="244.08263"
       y1="797.42712"
       x1="242.24159"
       id="linearGradient4082-5"
       xlink:href="#linearGradient4076-3"
       inkscape:collect="always" />
    <clipPath
       id="clipPath4034-5"
       clipPathUnits="userSpaceOnUse">
      <path
         style="fill:#b11515;fill-opacity:1;stroke:none"
         d="m 386.62905,209.59755 c -30.9786,0 -61.92912,11.77036 -85.565,35.40621 -43.15817,43.15805 -46.91949,110.84697 -11.27249,158.26878 l 96.83749,146.92063 96.8375,-146.92063 c 16.11603,-21.4391 24.19356,-47.06157 24.20937,-72.62812 0,-13.37035 -10.8389,-24.20938 -24.20937,-24.20938 l -72.62812,0 c -13.37048,0 -24.20938,10.83903 -24.20938,24.20938 0,13.37035 10.8389,24.20937 24.20938,24.20937 l 44.93865,0 c -3.47824,10.07715 -9.20707,19.57183 -17.24918,27.6137 -12.1197,12.11994 -27.46343,19.04309 -43.27426,20.80505 l -16.19002,0 c -15.81082,-1.7622 -31.15456,-8.68511 -43.27425,-20.80505 -28.36305,-28.36249 -28.36305,-74.29978 0,-102.66276 14.18151,-14.1816 32.7821,-21.33451 51.36926,-21.33451 18.33795,0 36.65653,6.99966 50.76403,20.80481 l 0.0755,0 c 9.45434,9.45449 24.74139,9.45449 34.19574,0 9.45434,-9.45424 9.45434,-24.81703 0,-34.27127 -0.59091,-0.59095 -1.18178,-1.14728 -1.81571,-1.66439 -23.40119,-22.48591 -53.53215,-33.74182 -83.74918,-33.74182 z"
         id="path4036-3"
         inkscape:connector-curvature="0" />
    </clipPath>
    <filter
       height="1.3663136"
       y="-0.18315679"
       width="1.2866147"
       x="-0.14330737"
       id="filter3993"
       inkscape:collect="always">
      <feGaussianBlur
         id="feGaussianBlur3995"
         stdDeviation="3.2515673"
         inkscape:collect="always" />
    </filter>
    <filter
       id="filter3930"
       inkscape:collect="always">
      <feGaussianBlur
         id="feGaussianBlur3932"
         stdDeviation="5.5134724"
         inkscape:collect="always" />
    </filter>
    <linearGradient
       id="linearGradient4076-3"
       inkscape:collect="always">
      <stop
         id="stop4078-8"
         offset="0"
         style="stop-color:#cccccc;stop-opacity:1;" />
      <stop
         id="stop4080-1"
         offset="1"
         style="stop-color:#cccccc;stop-opacity:0;" />
    </linearGradient>
    <linearGradient
       id="linearGradient4580-7"
       inkscape:collect="always">
      <stop
         id="stop4582-8"
         offset="0"
         style="stop-color:#b73434;stop-opacity:1" />
      <stop
         id="stop4584-8"
         offset="1"
         style="stop-color:#b13131;stop-opacity:1" />
    </linearGradient>
    <linearGradient
       id="linearGradient4588-4"
       inkscape:collect="always">
      <stop
         id="stop4590-1"
         offset="0"
         style="stop-color:#962828;stop-opacity:1" />
      <stop
         id="stop4592-3"
         offset="1"
         style="stop-color:#af2f2f;stop-opacity:1" />
    </linearGradient>
  </defs>
  <sodipodi:namedview
     id="base"
     pagecolor="#ffffff"
     bordercolor="#666666"
     borderopacity="1.0"
     inkscape:pageopacity="0.0"
     inkscape:pageshadow="2"
     inkscape:zoom="1.3255511"
     inkscape:cx="47.940543"
     inkscape:cy="141.56732"
     inkscape:document-units="px"
     inkscape:current-layer="layer1"
     showgrid="false"
     inkscape:window-width="1440"
     inkscape:window-height="852"
     inkscape:window-x="0"
     inkscape:window-y="0"
     inkscape:window-maximized="1">
    <inkscape:grid
       type="xygrid"
       id="grid10938"
       empspacing="5"
       visible="true"
       enabled="true"
       snapvisiblegridlinesonly="true" />
  </sodipodi:namedview>
  <metadata
     id="metadata10047">
    <rdf:RDF>
      <cc:Work
         rdf:about="">
        <dc:format>image/svg+xml</dc:format>
        <dc:type
           rdf:resource="http://purl.org/dc/dcmitype/StillImage" />
        <dc:title></dc:title>
      </cc:Work>
    </rdf:RDF>
  </metadata>
  <g
     inkscape:label="Layer 1"
     inkscape:groupmode="layer"
     id="layer1"
     transform="translate(0,-752.36218)">
    <g
       transform="translate(-714.79874,46.859511)"
       id="layer1-0"
       inkscape:label="Layer 1">
      <rect
         y="362.36218"
         x="200"
         height="340"
         width="340"
         id="rect8755"
         style="fill:#f2f2e8;fill-opacity:1;stroke:none" />
      <rect
         y="372.36218"
         x="430"
         height="100"
         width="100"
         id="rect8213"
         style="fill:#2d2c27;fill-opacity:1;stroke:none" />
      <rect
         style="fill:#ef684e;fill-opacity:1;stroke:none"
         id="rect8217"
         width="100"
         height="100"
         x="320"
         y="372.36218" />
      <rect
         y="372.36218"
         x="210"
         height="100"
         width="100"
         id="rect8727"
         style="fill:#f2f2e8;fill-opacity:1;stroke:none" />
      <rect
         y="372.36218"
         x="210"
         height="100"
         width="100"
         id="rect8731"
         style="fill:#6aa7ee;fill-opacity:1;stroke:none" />
      <rect
         style="fill:#84f07e;fill-opacity:1;stroke:none"
         id="rect8735"
         width="100"
         height="100"
         x="210"
         y="482.36218" />
      <rect
         style="fill:#ecc358;fill-opacity:1;stroke:none"
         id="rect8743"
         width="100"
         height="100"
         x="320"
         y="592.36218" />
      <rect
         y="592.36218"
         x="430"
         height="100"
         width="100"
         id="rect8745"
         style="fill:#46453d;fill-opacity:1;stroke:none" />
      <rect
         style="fill:#9d57ef;fill-opacity:1;stroke:none"
         id="rect8747"
         width="100"
         height="100"
         x="430"
         y="482.36218" />
      <rect
         y="592.36218"
         x="210"
         height="100"
         width="100"
         id="rect8749"
         style="fill:#ed7cc9;fill-opacity:1;stroke:none" />
    </g>
    <g
       style="font-size:30.38736725px;font-style:normal;font-weight:normal;line-height:125%;letter-spacing:-0.69422078px;word-spacing:0px;fill:#808080;fill-opacity:1;stroke:none;font-family:Sans"
       id="text3774"
       transform="translate(-158.20859,-179.68539)" />
    <g
       style="font-size:30.38736725px;font-style:normal;font-weight:normal;line-height:125%;letter-spacing:-0.69422078px;word-spacing:0px;fill:#808080;fill-opacity:1;stroke:none;font-family:Sans"
       id="text3782"
       transform="translate(-159.20859,-179.68539)" />
    <path
       style="opacity:0.14224138;fill:#000000;fill-opacity:0.17777782000000000;stroke:none;filter:url(#filter3930)"
       d="m 97.103027,1894.1506 -75.380214,67.337 c 77.010259,-9.6544 124.559307,19.9728 186.369067,30.5857 l 169.4375,-61.7813 205.0625,50.6563 -65.9922,-89.2718 -118.28125,-47.8437 -104.1875,36.3437 z"
       id="path3887"
       inkscape:connector-curvature="0"
       sodipodi:nodetypes="ccccccccc"
       transform="matrix(0.55223002,0,0,0.55223002,-14.881963,-62.596243)" />
    <path
       style="opacity:0.14224138;fill:#f2f2f2;stroke:none"
       d="m 265.47756,923.44337 -65.31632,-26.41316 -6.55211,94.18653 113.22861,40.13166 z"
       id="path3867"
       inkscape:connector-curvature="0" />
    <path
       style="opacity:0.14224138;fill:#ffffff;stroke:none"
       d="m 200.00351,899.30816 -5.71213,81.98887 101.50678,36.79237 -32.35723,-91.118 -63.43742,-27.66324 z"
       id="path3871"
       inkscape:connector-curvature="0" />
    <path
       inkscape:connector-curvature="0"
       id="path3878"
       d="m 142.62555,917.09604 57.53569,-20.06583 -6.55211,94.18653 -93.57229,46.27426 z"
       style="opacity:0.14224138;fill:#e6e6e6;stroke:none"
       sodipodi:nodetypes="ccccc" />
    <path
       style="opacity:0.14224138;fill:#f2f2f2;stroke:none"
       d="m 200.00351,899.30816 -58.3293,20.46697 -37.75872,106.71847 90.37589,-45.19657 5.71213,-81.98887 z"
       id="path3876"
       inkscape:connector-curvature="0" />
    <path
       sodipodi:nodetypes="ccccc"
       style="opacity:0.14224138;fill:#f2f2f2;stroke:none"
       d="M 142.62555,917.09604 74.647429,893.54939 -17.082073,978.11254 100.03684,1037.491 z"
       id="path3880"
       inkscape:connector-curvature="0" />
    <path
       id="path3885"
       d="M 76.946743,897.46537 141.67421,919.77513 103.91549,1026.4936 -2.6813458,975.56394 z"
       style="opacity:0.14224138;fill:#ffffff;stroke:none"
       inkscape:connector-curvature="0"
       sodipodi:nodetypes="ccccc" />
    <path
       style="opacity:0.73706863;fill:url(#linearGradient4082-5);fill-opacity:1;stroke:none;filter:url(#filter3993)"
       d="m 203.22062,840.41552 1.83607,-38.07924 32.98478,-7.65836 19.45999,7.17863 -20.16382,8.82413 z"
       id="path3951"
       inkscape:connector-curvature="0"
       sodipodi:nodetypes="cccccc"
       transform="matrix(2.4209374,0,0,2.4209374,343.0356,-1207.4691)" />
    <path
       style="fill:#ca3b3b;fill-opacity:1;stroke:none"
       d="m 835.01999,477.52868 c -30.9786,0 -61.92912,11.77036 -85.565,35.40621 -43.15817,43.15805 -46.91949,110.84697 -11.27249,158.26878 l 96.83749,146.92063 96.8375,-146.92063 c 16.11603,-21.4391 24.19356,-47.06157 24.20937,-72.62812 0,-13.37035 -10.8389,-24.20938 -24.20937,-24.20938 l -72.62812,0 c -13.37048,0 -24.20938,10.83903 -24.20938,24.20938 0,13.37035 10.8389,24.20937 24.20938,24.20937 l 44.93865,0 c -3.47824,10.07715 -9.20707,19.57183 -17.24918,27.6137 -12.1197,12.11994 -27.46343,19.04309 -43.27426,20.80505 l -16.19002,0 c -15.81082,-1.7622 -31.15456,-8.68511 -43.27425,-20.80505 -28.36305,-28.36249 -28.36305,-74.29978 0,-102.66276 14.18151,-14.1816 32.7821,-21.33451 51.36926,-21.33451 18.33795,0 36.65653,6.99966 50.76403,20.80481 l 0.0755,0 c 9.45434,9.45449 24.74139,9.45449 34.19574,0 9.45434,-9.45424 9.45434,-24.81703 0,-34.27127 -0.59091,-0.59095 -1.18178,-1.14728 -1.81571,-1.66439 -23.40119,-22.48591 -53.53215,-33.74182 -83.74918,-33.74182 z"
       id="path2989"
       inkscape:connector-curvature="0" />
    <g
       style="font-size:30.38736725px;font-style:normal;font-weight:normal;line-height:125%;letter-spacing:-0.69422078px;word-spacing:0px;fill:#808080;fill-opacity:1;stroke:none;font-family:Sans"
       id="text3774-7"
       transform="translate(448.39094,267.93113)" />
    <g
       style="font-size:30.38736725px;font-style:normal;font-weight:normal;line-height:125%;letter-spacing:-0.69422078px;word-spacing:0px;fill:#808080;fill-opacity:1;stroke:none;font-family:Sans"
       id="text3782-5"
       transform="translate(447.39094,267.93113)" />
    <g
       style="font-size:30.38736725px;font-style:normal;font-weight:normal;line-height:125%;letter-spacing:-0.69422078px;word-spacing:0px;fill:#808080;fill-opacity:1;stroke:none;font-family:Sans"
       id="text3804-5"
       transform="matrix(2.5357941,0,0,2.5357941,419.93681,-2850.8236)">
      <path
         id="path3809-4"
         style="font-variant:normal;font-stretch:normal;fill:#808080;font-family:Maven Pro;-inkscape-font-specification:Maven Pro"
         d="m 153.96911,1564.7674 0,7.1728 -7.88323,0 0,-7.1728 -2.2148,0 0,15.456 2.2148,0 0,-6.1607 7.88323,0 0,6.1607 2.21478,0 0,-15.456 -2.21478,0 m 63.11252,-0.1707 c -3.19913,0 -5.75228,1.1384 -6.49053,1.5075 l 0,14.1192 2.21477,0 0,-12.7966 c 1.04587,-0.3076 2.46088,-0.6152 4.02969,-0.6152 3.6913,0 4.12194,1.9687 4.12194,3.4145 l 0,9.9973 2.21477,0 0,-9.9973 c 0,-3.5682 -2.21477,-5.6294 -6.09064,-5.6294 m -10.65089,15.6267 -2.21478,0 0,-15.3497 2.21478,0 0,15.3497 m -12.05004,-8.3055 6.55207,-7.0442 -3.01457,0 -6.89043,7.5364 0,-8.3196 -2.21479,0 0,16.1329 2.21479,0 0,-4.6757 1.90716,-2.061 5.87535,6.7367 2.95303,0 -7.38261,-8.3055 m -17.75474,0.6154 c 0,-4.0605 1.56882,-5.8141 5.22936,-5.8141 1.50727,0 2.95305,0.3076 4.30653,0.8615 l 0,-2.1225 c -1.44578,-0.5537 -2.98382,-0.8615 -4.55263,-0.8615 -3.29141,0 -7.19804,1.3844 -7.19804,7.9366 0,6.5826 3.90663,7.9361 7.19804,7.9361 1.56881,0 3.10685,-0.2768 4.55263,-0.8306 l 0,-2.1532 c -1.35348,0.5845 -2.79926,0.8613 -4.30653,0.8613 -3.66054,0 -5.22936,-1.7226 -5.22936,-5.8136 m -11.38387,-7.9366 c -6.98271,0 -6.73662,6.5214 -6.73662,8.1519 0,6.3982 3.81434,7.7208 7.01347,7.7208 2.18403,0 3.99892,-0.3691 5.47543,-1.0766 l 0,-2.2763 c -1.29194,0.7691 -3.01456,1.1381 -5.26009,1.1381 -3.16837,0 -4.70644,-1.3227 -4.98328,-4.3987 l 11.19697,0 c 0,0 0.0616,-0.4922 0.0616,-1.0767 0,-0.5844 0.21531,-8.1825 -6.76741,-8.1825 m -4.49108,7.2906 c 0.21533,-3.7838 1.47653,-5.1987 4.49108,-5.1987 4.24501,0 4.4911,4.4602 4.4911,5.1987 l -8.98218,0 m -29.30871,0.646 c 0,-4.0605 1.5688,-5.8141 5.22934,-5.8141 1.50729,0 2.95305,0.3076 4.30653,0.8615 l 0,-2.1225 c -1.44576,-0.5537 -2.9838,-0.8615 -4.55262,-0.8615 -3.29141,0 -7.19804,1.3844 -7.19804,7.9366 0,6.5826 3.90663,7.9361 7.19804,7.9361 1.56882,0 3.10686,-0.2768 4.55262,-0.8306 l 0,-2.1532 c -1.35348,0.5845 -2.79924,0.8613 -4.30653,0.8613 -3.66054,0 -5.22934,-1.7226 -5.22934,-5.8136"
         inkscape:connector-curvature="0"
         sodipodi:nodetypes="ccccccccccccccccccssccsccccccccccccccccccccsccsssccsccssccsccsccscccsccsssccsc" />
    </g>
    <g
       style="font-size:33.86421585px;font-style:normal;font-weight:normal;line-height:125%;letter-spacing:0px;word-spacing:0px;fill:#000000;fill-opacity:1;stroke:none;font-family:Sans"
       id="text3828-1"
       transform="matrix(3.247074,0,0,3.247074,284.46765,-4336.8995)">
      <path
         style="font-variant:normal;font-weight:bold;font-stretch:normal;fill:#333333;font-family:Maven Pro;-inkscape-font-specification:Maven Pro Bold"
         d="m 203.99972,1653.3757 0,4.0637 7.21308,0 0,18.5237 4.06371,0 0,-18.5237 7.24694,0 0,-4.0637 -18.52373,0"
         id="path4009-8"
         inkscape:connector-curvature="0" />
      <path
         id="path4005-8"
         style="font-variant:normal;font-weight:bold;font-stretch:normal;fill:#333333;font-family:Maven Pro;-inkscape-font-specification:Maven Pro Bold"
         d="m 193.05725,1672.6783 c -3.35255,0 -6.46806,-0.9821 -6.46806,-8.0258 0,-7.0099 3.11551,-7.9581 6.46806,-7.9581 3.38642,0 6.50193,0.9482 6.50193,7.9581 0,7.0437 -3.11551,8.0258 -6.50193,8.0258 m 0,-19.5735 c -4.80871,0 -10.53177,1.998 -10.53177,11.5816 0,9.5497 5.72306,11.5476 10.53177,11.5476 4.80871,0 10.56564,-1.9979 10.56564,-11.5476 0,-9.5836 -5.75693,-11.5816 -10.56564,-11.5816"
         inkscape:connector-curvature="0" />
      <path
         id="path4001-3"
         style="font-variant:normal;font-weight:bold;font-stretch:normal;fill:#333333;font-family:Maven Pro;-inkscape-font-specification:Maven Pro Bold"
         d="m 171.61525,1667.1524 c -0.98206,0 -4.03153,-0.1016 -4.74268,-0.2032 l 0,-8.8047 c 0,-1.4223 3.48971,-1.8286 5.28451,-1.8286 2.60754,0 3.48801,1.7609 3.48801,5.6214 0,4.0976 -1.59162,5.2151 -4.02984,5.2151 m 0.54183,-14.3246 c -5.24895,-0.6013 -9.34822,1.0838 -9.34822,5.6892 l 0,17.711 4.06371,0 0,-6.231 c 0.91433,0.2032 4.0654,0.3048 5.01359,0.3048 5.04577,0 7.8565,-3.0478 7.8565,-8.5677 0,-8.0258 -5.31668,-8.9063 -7.58558,-8.9063"
         inkscape:connector-curvature="0" />
      <path
         style="font-variant:normal;font-weight:bold;font-stretch:normal;fill:#333333;font-family:Maven Pro;-inkscape-font-specification:Maven Pro Bold"
         d="m 147.92452,1659.5729 c 0,-2.0319 2.33663,-2.6753 4.47008,-2.6753 2.33663,0 4.19916,0.8127 5.58759,1.7271 l 0,-3.9622 c -1.76093,-0.9143 -3.79279,-1.5577 -6.06169,-1.5577 -4.23302,0 -8.05968,1.9641 -8.05968,6.5696 0,7.8904 11.47996,5.0458 11.47996,10.0577 0,2.0996 -2.33663,2.6076 -4.67326,2.6076 -2.77686,0 -4.91031,-0.9821 -6.50193,-2.1673 l 0,4.1314 c 1.82867,1.1175 4.23303,1.9302 7.45013,1.9302 4.19916,0 7.78877,-2.472 7.78877,-6.231 0,-9.211 -11.47997,-6.2987 -11.47997,-10.4301"
         id="path3843-5"
         inkscape:connector-curvature="0" />
    </g>
    <path
       inkscape:connector-curvature="0"
       id="path3997-2"
       d="m 696.05169,1029.872 c -11.20943,0 -22.40868,4.2589 -30.96127,12.8116 -15.6165,15.616 -16.97753,40.1091 -4.07885,57.2689 l 35.04012,53.1619 35.04014,-53.1619 c 5.8315,-7.7579 8.75432,-17.0293 8.76004,-26.2807 0,-4.8373 -3.92197,-8.7599 -8.76004,-8.7599 l -26.2801,0 c -4.83803,0 -8.76004,3.9226 -8.76004,8.7599 0,4.8385 3.92201,8.7599 8.76004,8.7599 l 16.26083,0 c -1.25855,3.6467 -3.33153,7.0822 -6.24149,9.9924 -4.38548,4.3856 -9.93752,6.8905 -15.65865,7.5284 l -5.85818,0 c -5.72114,-0.6379 -11.2732,-3.1428 -15.6586,-7.5284 -10.26301,-10.263 -10.26301,-26.8852 0,-37.148 5.13154,-5.1314 11.86203,-7.7199 18.58769,-7.7199 6.6355,0 13.26397,2.5328 18.36871,7.5281 l 0.0269,0 c 3.42095,3.4206 8.95253,3.4206 12.37353,0 3.42103,-3.4208 3.42103,-8.98 0,-12.4007 -0.21401,-0.2107 -0.42761,-0.4152 -0.65702,-0.6026 -8.46759,-8.1363 -19.37038,-12.209 -30.30423,-12.209 z"
       style="fill:#b11515;fill-opacity:1;stroke:none" />
    <g
       id="g4613"
       transform="translate(647.64499,905.5618)">
      <path
         style="fill:url(#linearGradient4618-9);fill-opacity:1;stroke:none"
         d="m 187.37387,-428.01901 c -30.9786,0 -61.92912,11.77036 -85.565,35.40621 -43.158166,43.15805 -46.919486,110.84697 -11.272486,158.26878 l 96.837486,146.920628 96.8375,-146.920628 c 16.11603,-21.4391 24.19356,-47.06157 24.20937,-72.62812 0,-13.37035 -10.8389,-24.20938 -24.20937,-24.20938 l -72.62812,0 c -13.37048,0 -24.20938,10.83903 -24.20938,24.20938 0,13.37035 10.8389,24.20937 24.20938,24.20937 l 44.93865,0 c -3.47824,10.07715 -9.20707,19.57183 -17.24918,27.6137 -12.1197,12.11994 -27.46343,19.04309 -43.27426,20.80505 l -16.19002,0 c -15.81082,-1.7622 -31.15456,-8.68511 -43.27425,-20.80505 -28.36305,-28.36249 -28.36305,-74.29978 0,-102.66276 14.18151,-14.1816 32.7821,-21.33451 51.36926,-21.33451 18.33795,0 36.65653,6.99966 50.76403,20.80481 l 0.0755,0 c 9.45434,9.45449 24.74139,9.45449 34.19574,0 9.45434,-9.45424 9.45434,-24.81703 0,-34.27127 -0.59091,-0.59095 -1.18178,-1.14728 -1.81571,-1.66439 -23.40119,-22.48591 -53.53215,-33.74182 -83.74918,-33.74182 z"
         id="path4053"
         inkscape:connector-curvature="0" />
      <path
         id="path4596"
         d="m 211.59375,-331.1875 c -13.37048,0 -24.21875,10.8484 -24.21875,24.21875 0,13.37035 10.84827,24.21875 24.21875,24.21875 l 44.9375,0 c -3.47824,10.07715 -9.20789,19.55188 -17.25,27.59375 -12.1197,12.11994 -27.47042,19.05054 -43.28125,20.8125 l -8.625,0 0,146.90625 96.84375,-146.90625 c 16.11603,-21.4391 24.17169,-47.05845 24.1875,-72.625 0,-13.37035 -10.81703,-24.21875 -24.1875,-24.21875 l -72.625,0 z"
         style="fill:url(#linearGradient4620-5);fill-opacity:1;stroke:none"
         inkscape:connector-curvature="0" />
      <path
         id="path4573"
         d="m 179.1875,-403 c -10.8451,-0.066 -21.84887,2.21895 -32.34375,7.3125 -33.86896,15.46289 -57.40625,49.64904 -57.40625,89.3125 0,54.18298 43.91076,98.09375 98.09375,98.09375 54.18298,0 98.125,-43.91077 98.125,-98.09375 l -76.34375,0 c -9.73148,1.51667 -13.26189,8.51118 -16.03125,15.28125 4.43877,5.11408 11.00912,8.34375 18.3125,8.34375 l 44.9375,0 c -3.47824,10.07715 -9.20789,19.55188 -17.25,27.59375 -12.1197,12.11994 -27.47042,19.05054 -43.28125,20.8125 l -16.1875,0 c -15.81082,-1.7622 -31.16156,-8.69256 -43.28125,-20.8125 -28.36305,-28.36249 -28.36305,-74.29327 0,-102.65625 14.18151,-14.1816 32.78784,-21.34375 51.375,-21.34375 18.33795,0 36.6425,7.00735 50.75,20.8125 l 0.0937,0 c 4.20038,4.20045 9.55128,6.53191 15.03125,7 l 0,-0.1875 C 242.76811,-381.4571 211.72281,-402.80199 179.1875,-403 z"
         style="fill:url(#linearGradient4622-4);fill-opacity:1;stroke:none"
         inkscape:connector-curvature="0" />
    </g>
    <g
       style="font-size:30.38736725px;font-style:normal;font-weight:normal;line-height:125%;letter-spacing:-0.69422078px;word-spacing:0px;fill:#ffffff;fill-opacity:1;stroke:none;font-family:Sans"
       id="text3804"
       transform="matrix(0.8933017,0,0,0.8933017,-10.057491,-419.00004)">
      <path
         id="path3809"
         style="font-variant:normal;font-stretch:normal;fill:#ffffff;font-family:Maven Pro;-inkscape-font-specification:Maven Pro"
         d="m 153.96911,1564.7674 0,7.1728 -7.88323,0 0,-7.1728 -2.2148,0 0,15.456 2.2148,0 0,-6.1607 7.88323,0 0,6.1607 2.21478,0 0,-15.456 -2.21478,0 m 63.11252,-0.1707 c -3.19913,0 -5.75228,1.1384 -6.49053,1.5075 l 0,14.1192 2.21477,0 0,-12.7966 c 1.04587,-0.3076 2.46088,-0.6152 4.02969,-0.6152 3.6913,0 4.12194,1.9687 4.12194,3.4145 l 0,9.9973 2.21477,0 0,-9.9973 c 0,-3.5682 -2.21477,-5.6294 -6.09064,-5.6294 m -10.65089,15.6267 -2.21478,0 0,-15.3497 2.21478,0 0,15.3497 m -12.05004,-8.3055 6.55207,-7.0442 -3.01457,0 -6.89043,7.5364 0,-8.3196 -2.21479,0 0,16.1329 2.21479,0 0,-4.6757 1.90716,-2.061 5.87535,6.7367 2.95303,0 -7.38261,-8.3055 m -17.75474,0.6154 c 0,-4.0605 1.56882,-5.8141 5.22936,-5.8141 1.50727,0 2.95305,0.3076 4.30653,0.8615 l 0,-2.1225 c -1.44578,-0.5537 -2.98382,-0.8615 -4.55263,-0.8615 -3.29141,0 -7.19804,1.3844 -7.19804,7.9366 0,6.5826 3.90663,7.9361 7.19804,7.9361 1.56881,0 3.10685,-0.2768 4.55263,-0.8306 l 0,-2.1532 c -1.35348,0.5845 -2.79926,0.8613 -4.30653,0.8613 -3.66054,0 -5.22936,-1.7226 -5.22936,-5.8136 m -11.38387,-7.9366 c -6.98271,0 -6.73662,6.5214 -6.73662,8.1519 0,6.3982 3.81434,7.7208 7.01347,7.7208 2.18403,0 3.99892,-0.3691 5.47543,-1.0766 l 0,-2.2763 c -1.29194,0.7691 -3.01456,1.1381 -5.26009,1.1381 -3.16837,0 -4.70644,-1.3227 -4.98328,-4.3987 l 11.19697,0 c 0,0 0.0616,-0.4922 0.0616,-1.0767 0,-0.5844 0.21531,-8.1825 -6.76741,-8.1825 m -4.49108,7.2906 c 0.21533,-3.7838 1.47653,-5.1987 4.49108,-5.1987 4.24501,0 4.4911,4.4602 4.4911,5.1987 l -8.98218,0 m -29.30871,0.646 c 0,-4.0605 1.5688,-5.8141 5.22934,-5.8141 1.50729,0 2.95305,0.3076 4.30653,0.8615 l 0,-2.1225 c -1.44576,-0.5537 -2.9838,-0.8615 -4.55262,-0.8615 -3.29141,0 -7.19804,1.3844 -7.19804,7.9366 0,6.5826 3.90663,7.9361 7.19804,7.9361 1.56882,0 3.10686,-0.2768 4.55262,-0.8306 l 0,-2.1532 c -1.35348,0.5845 -2.79924,0.8613 -4.30653,0.8613 -3.66054,0 -5.22934,-1.7226 -5.22934,-5.8136"
         inkscape:connector-curvature="0"
         sodipodi:nodetypes="ccccccccccccccccccssccsccccccccccccccccccccsccsssccsccssccsccsccscccsccsssccsc" />
    </g>
    <g
       style="font-size:33.86421585px;font-style:normal;font-weight:normal;line-height:125%;letter-spacing:0px;word-spacing:0px;fill:#ffffff;fill-opacity:1;stroke:none;font-family:Sans"
       id="text3828"
       transform="matrix(1.1438692,0,0,1.1438692,-57.780148,-942.51027)">
      <path
         style="font-variant:normal;font-weight:bold;font-stretch:normal;fill:#ffffff;font-family:Maven Pro;-inkscape-font-specification:Maven Pro Bold"
         d="m 203.99972,1653.3757 0,4.0637 7.21308,0 0,18.5237 4.06371,0 0,-18.5237 7.24694,0 0,-4.0637 -18.52373,0"
         id="path4009"
         inkscape:connector-curvature="0" />
      <path
         id="path4005"
         style="font-variant:normal;font-weight:bold;font-stretch:normal;fill:#ffffff;font-family:Maven Pro;-inkscape-font-specification:Maven Pro Bold"
         d="m 193.05725,1672.6783 c -3.35255,0 -6.46806,-0.9821 -6.46806,-8.0258 0,-7.0099 3.11551,-7.9581 6.46806,-7.9581 3.38642,0 6.50193,0.9482 6.50193,7.9581 0,7.0437 -3.11551,8.0258 -6.50193,8.0258 m 0,-19.5735 c -4.80871,0 -10.53177,1.998 -10.53177,11.5816 0,9.5497 5.72306,11.5476 10.53177,11.5476 4.80871,0 10.56564,-1.9979 10.56564,-11.5476 0,-9.5836 -5.75693,-11.5816 -10.56564,-11.5816"
         inkscape:connector-curvature="0" />
      <path
         id="path4001"
         style="font-variant:normal;font-weight:bold;font-stretch:normal;fill:#ffffff;font-family:Maven Pro;-inkscape-font-specification:Maven Pro Bold"
         d="m 171.61525,1667.1524 c -0.98206,0 -4.03153,-0.1016 -4.74268,-0.2032 l 0,-8.8047 c 0,-1.4223 3.48971,-1.8286 5.28451,-1.8286 2.60754,0 3.48801,1.7609 3.48801,5.6214 0,4.0976 -1.59162,5.2151 -4.02984,5.2151 m 0.54183,-14.3246 c -5.24895,-0.6013 -9.34822,1.0838 -9.34822,5.6892 l 0,17.711 4.06371,0 0,-6.231 c 0.91433,0.2032 4.0654,0.3048 5.01359,0.3048 5.04577,0 7.8565,-3.0478 7.8565,-8.5677 0,-8.0258 -5.31668,-8.9063 -7.58558,-8.9063"
         inkscape:connector-curvature="0" />
      <path
         style="font-variant:normal;font-weight:bold;font-stretch:normal;fill:#ffffff;font-family:Maven Pro;-inkscape-font-specification:Maven Pro Bold"
         d="m 147.92452,1659.5729 c 0,-2.0319 2.33663,-2.6753 4.47008,-2.6753 2.33663,0 4.19916,0.8127 5.58759,1.7271 l 0,-3.9622 c -1.76093,-0.9143 -3.79279,-1.5577 -6.06169,-1.5577 -4.23302,0 -8.05968,1.9641 -8.05968,6.5696 0,7.8904 11.47996,5.0458 11.47996,10.0577 0,2.0996 -2.33663,2.6076 -4.67326,2.6076 -2.77686,0 -4.91031,-0.9821 -6.50193,-2.1673 l 0,4.1314 c 1.82867,1.1175 4.23303,1.9302 7.45013,1.9302 4.19916,0 7.78877,-2.472 7.78877,-6.231 0,-9.211 -11.47997,-6.2987 -11.47997,-10.4301"
         id="path3843"
         inkscape:connector-curvature="0" />
    </g>
    <path
       inkscape:connector-curvature="0"
       id="path3997"
       d="m 149.99467,796.05395 c -13.25424,0 -26.49644,5.03581 -36.60919,15.14867 -18.465238,18.46467 -20.074546,47.42579 -4.8229,67.71592 l 41.43209,62.85957 41.43213,-62.85957 c 6.89528,-9.17309 10.35128,-20.13584 10.35804,-31.07484 0,-5.71967 -4.63741,-10.35789 -10.35804,-10.35789 l -31.07409,0 c -5.72058,0 -10.35804,4.63822 -10.35804,10.35789 0,5.72113 4.63746,10.3579 10.35804,10.3579 l 19.22712,0 c -1.48814,4.31188 -3.93927,8.37414 -7.38006,11.81523 -5.18547,5.18553 -11.75031,8.14742 -18.51508,8.90171 l -6.92683,0 c -6.76478,-0.75429 -13.32964,-3.71618 -18.51502,-8.90171 -12.13518,-12.13526 -12.13518,-31.78962 0,-43.92459 6.06763,-6.06749 14.02589,-9.12814 21.97844,-9.12814 7.84594,0 15.68357,2.99482 21.71951,8.90143 l 0.0318,0 c 4.04499,4.04451 10.58564,4.04451 14.63069,0 4.04509,-4.04481 4.04509,-10.61811 0,-14.66291 -0.25305,-0.24904 -0.50562,-0.49093 -0.77687,-0.71249 -10.01224,-9.6205 -22.90391,-14.43618 -35.8323,-14.43618 z"
       style="fill:#ffffff;fill-opacity:1;stroke:none" />
  </g>
</svg>
