<svg width="256" height="256" viewBox="0 0 256 256" fill="none" xmlns="http://www.w3.org/2000/svg">
<g filter="url(#filter0_d_139_647)">
<path d="M128 166.828C124.937 166.828 122.453 164.345 122.453 161.281V94.7188C122.453 91.6553 124.937 89.1719 128 89.1719C131.063 89.1719 133.547 91.6553 133.547 94.7188V161.281C133.547 164.345 131.063 166.828 128 166.828Z" fill="#6DF5BC"/>
<path d="M141.312 147.969C141.312 151.032 143.796 153.516 146.859 153.516C149.923 153.516 152.406 151.032 152.406 147.969V108.031C152.406 104.968 149.923 102.484 146.859 102.484C143.796 102.484 141.312 104.968 141.312 108.031V147.969Z" fill="#6DF5BC"/>
<path d="M103.594 137.984C103.594 141.048 106.077 143.531 109.141 143.531C112.204 143.531 114.688 141.048 114.688 137.984V118.016C114.688 114.952 112.204 112.469 109.141 112.469C106.077 112.469 103.594 114.952 103.594 118.016V137.984Z" fill="#6DF5BC"/>
<path fill-rule="evenodd" clip-rule="evenodd" d="M57 128C57 88.7878 88.7878 57 128 57C167.212 57 199 88.7878 199 128C199 167.212 167.212 199 128 199C88.7878 199 57 167.212 57 128ZM185.773 117.018C186.32 119.912 183.994 122.453 181.049 122.453H166.828C163.765 122.453 161.281 124.937 161.281 128C161.281 131.063 163.765 133.547 166.828 133.547H181.049C183.994 133.547 186.32 136.088 185.773 138.982C180.63 166.206 156.72 186.797 128 186.797C99.2806 186.797 75.3702 166.206 70.2268 138.982C69.68 136.088 72.0055 133.547 74.9509 133.547H89.1719C92.2354 133.547 94.7188 131.063 94.7188 128C94.7188 124.937 92.2354 122.453 89.1719 122.453H74.9509C72.0055 122.453 69.68 119.912 70.2268 117.018C75.3702 89.794 99.2806 69.2031 128 69.2031C156.72 69.2031 180.63 89.794 185.773 117.018Z" fill="#6DF5BC"/>
</g>
<defs>
<filter id="filter0_d_139_647" x="32" y="32" width="192" height="192" filterUnits="userSpaceOnUse" color-interpolation-filters="sRGB">
<feFlood flood-opacity="0" result="BackgroundImageFix"/>
<feColorMatrix in="SourceAlpha" type="matrix" values="0 0 0 0 0 0 0 0 0 0 0 0 0 0 0 0 0 0 127 0" result="hardAlpha"/>
<feOffset/>
<feGaussianBlur stdDeviation="12.5"/>
<feComposite in2="hardAlpha" operator="out"/>
<feColorMatrix type="matrix" values="0 0 0 0 0.427451 0 0 0 0 0.960784 0 0 0 0 0.737255 0 0 0 0.4 0"/>
<feBlend mode="normal" in2="BackgroundImageFix" result="effect1_dropShadow_139_647"/>
<feBlend mode="normal" in="SourceGraphic" in2="effect1_dropShadow_139_647" result="shape"/>
</filter>
</defs>
</svg>
