<svg width="58" height="58" viewBox="0 0 58 58" fill="none" xmlns="http://www.w3.org/2000/svg">
<path d="M28.264 35.952C28.6267 35.952 29.704 35.3973 31.496 34.288C31.496 34.2667 31.464 33.264 31.4 31.28L28.968 31.504C27.24 31.6747 26.376 32.4747 26.376 33.904C26.376 35.2693 27.0053 35.952 28.264 35.952ZM35.496 28.208L35.368 35.568C36.136 35.6747 36.9893 35.8667 37.928 36.144C38.8667 34.2667 39.336 32.112 39.336 29.68C39.336 26.416 38.3973 23.9093 36.52 22.16C34.6427 20.4107 32.0933 19.536 28.872 19.536C25.672 19.536 23.1333 20.4107 21.256 22.16C19.3787 23.9093 18.44 26.4587 18.44 29.808C18.44 33.136 19.464 35.888 21.512 38.064C23.56 40.24 25.992 41.328 28.808 41.328C30.472 41.328 32.4667 41.104 34.792 40.656C37.1173 40.208 38.664 39.76 39.432 39.312C39.6453 39.5253 39.848 39.888 40.04 40.4C40.2533 40.9333 40.3813 41.4133 40.424 41.84C39.592 42.3947 37.9387 42.9067 35.464 43.376C33.0107 43.8453 30.8027 44.08 28.84 44.08C24.8933 44.08 21.64 42.736 19.08 40.048C16.52 37.36 15.24 33.9573 15.24 29.84C15.24 25.7013 16.4133 22.48 18.76 20.176C21.128 17.872 24.4987 16.72 28.872 16.72C33.2667 16.72 36.6373 17.8187 38.984 20.016C41.352 22.192 42.536 25.2533 42.536 29.2C42.536 30.8853 42.0347 32.6133 41.032 34.384C40.0293 36.1547 38.9627 37.3067 37.832 37.84C37.3627 38.0533 36.6053 38.2773 35.56 38.512C34.5147 38.768 33.48 38.896 32.456 38.896C32.3067 38.5973 32.104 38.064 31.848 37.296C29.9493 38.4907 28.5307 39.088 27.592 39.088C25.9493 39.088 24.6267 38.6613 23.624 37.808C22.6427 36.9333 22.152 35.7173 22.152 34.16C22.152 30.6613 24.3067 28.8373 28.616 28.688C29.704 28.688 30.5893 28.6667 31.272 28.624L31.24 28.112C31.1973 26.9173 30.984 26.0427 30.6 25.488C30.2373 24.9333 29.5867 24.656 28.648 24.656L27.624 24.848L26.888 28.08L25.736 28.112L23.912 27.888C23.5067 26.7787 23.2933 25.3493 23.272 23.6C23.72 23.3653 24.712 23.0027 26.248 22.512C27.8053 22.0213 28.7867 21.776 29.192 21.776C31.496 21.776 33.1173 22.288 34.056 23.312C35.016 24.3147 35.496 25.9467 35.496 28.208Z" fill="white"/>
</svg>
