<svg width="58" height="58" viewBox="0 0 58 58" fill="none" xmlns="http://www.w3.org/2000/svg">
<g clip-path="url(#clip0_218_32)">
<path fill-rule="evenodd" clip-rule="evenodd" d="M23.0458 49C23.0504 48.954 23.0526 48.9082 23.0526 48.8629C23.0526 48.6017 23.048 48.0657 23.042 47.3695C23.0348 46.5406 23.0256 45.4846 23.02 44.3946C16.3432 45.8464 14.9343 41.5628 14.9343 41.5628C13.8425 38.7888 12.2695 38.0511 12.2695 38.0511C10.0919 36.5615 12.4336 36.5921 12.4336 36.5921C14.8436 36.7615 16.1126 39.0654 16.1126 39.0654C18.2532 42.7345 21.7272 41.6737 23.0967 41.0605C23.3122 39.5093 23.9341 38.4505 24.6205 37.8512C19.2897 37.2443 13.6859 35.1864 13.6859 25.9902C13.6859 23.3699 14.6235 21.229 16.1587 19.5482C15.9096 18.9437 15.0881 16.5027 16.3912 13.1968C16.3912 13.1968 18.4066 12.5518 22.993 15.657C24.9074 15.1252 26.9606 14.8585 29.0002 14.8494C31.0398 14.8585 33.0946 15.1252 35.0126 15.657C39.5934 12.5518 41.606 13.1968 41.606 13.1968C42.9124 16.5027 42.0905 18.9437 41.8413 19.5482C43.3801 21.229 44.3113 23.3699 44.3113 25.9902C44.3113 35.2083 38.6968 37.238 33.3525 37.8321C34.2133 38.5769 34.9804 40.0375 34.9804 42.2766C34.9804 44.423 34.968 46.2893 34.9597 47.5272C34.9366 51.0024 35 54.4766 35 58H23V49H23.0458ZM13.5775 37.5054C13.7484 37.5873 13.936 37.5515 13.9889 37.4323C14.0493 37.3127 13.9499 37.1485 13.7754 37.0702C13.6018 36.988 13.4138 37.0222 13.3621 37.145C13.3057 37.2646 13.4035 37.4271 13.5775 37.5054ZM14.6794 38.3748C14.8312 38.5425 15.055 38.5918 15.1694 38.4857C15.289 38.3784 15.2584 38.1562 15.1015 37.9869C14.9441 37.8196 14.7271 37.7699 14.609 37.876C14.493 37.9837 14.5224 38.2075 14.6794 38.3748ZM15.9793 39.8335C15.8323 39.9356 15.5918 39.8398 15.4432 39.6264C15.2961 39.413 15.2961 39.157 15.4464 39.0545C15.5954 38.952 15.8323 39.0442 15.9829 39.256C16.1295 39.473 16.1295 39.7289 15.9793 39.8335ZM16.7322 41.3026C16.9373 41.5005 17.2175 41.5394 17.349 41.3944C17.4893 41.2509 17.4257 40.9743 17.2175 40.7811C17.0108 40.5848 16.729 40.5439 16.5959 40.6893C16.4639 40.8344 16.5224 41.109 16.7322 41.3026ZM19.1192 41.9213C19.0612 42.1093 18.7914 42.1947 18.5195 42.1149C18.2481 42.0326 18.0704 41.8124 18.1253 41.6224C18.1817 41.4333 18.4527 41.3442 18.7266 41.4297C18.9976 41.5116 19.1757 41.7301 19.1192 41.9213ZM20.6247 42.5105C20.9101 42.5069 21.1406 42.3427 21.1338 42.1448C21.1338 41.9481 20.9001 41.7891 20.6148 41.7947C20.3278 41.7995 20.1025 41.962 20.1025 42.1619C20.1057 42.3567 20.3378 42.5168 20.6247 42.5105ZM23.1129 42.069C23.1471 42.2621 22.9488 42.4604 22.6654 42.5133C22.3868 42.5642 22.1289 42.4449 22.0935 42.2534C22.0589 42.0554 22.2608 41.8571 22.539 41.8059C22.8228 41.7566 23.0767 41.8726 23.1129 42.069Z" fill="white"/>
</g>
<defs>
<clipPath id="clip0_218_32">
<rect width="58" height="58" fill="white"/>
</clipPath>
</defs>
</svg>
