<svg width="307" height="271" viewBox="0 0 307 271" fill="none" xmlns="http://www.w3.org/2000/svg">
<path d="M153.398 70C156.97 70 160.271 71.906 162.058 75L176.861 100.64C172.591 99.2755 168.158 98.2732 163.599 97.6698L153.398 80L143.196 97.6699C138.637 98.2733 134.205 99.2755 129.934 100.64L144.737 75C146.524 71.906 149.825 70 153.398 70Z" fill="url(#paint0_linear_286_5907)"/>
<path d="M224.609 203.343C226.325 199.184 227.687 194.842 228.657 190.354L243.464 216C245.251 219.094 245.251 222.906 243.464 226C241.678 229.094 238.377 231 234.804 231H205.167C208.527 227.946 211.617 224.599 214.394 221H234.804L224.609 203.343Z" fill="url(#paint1_linear_286_5907)"/>
<path d="M92.4011 221C95.1787 224.599 98.2678 227.946 101.628 231H71.9911C68.4185 231 65.1172 229.094 63.3309 226C61.5446 222.906 61.5446 219.094 63.3309 216L78.1378 190.354C79.1084 194.841 80.4702 199.183 82.1858 203.342L71.9911 221H92.4011Z" fill="url(#paint2_linear_286_5907)"/>
<path fill-rule="evenodd" clip-rule="evenodd" d="M153.398 30C156.97 30 160.272 31.906 162.058 35L278.105 236C279.892 239.094 279.892 242.906 278.105 246C276.319 249.094 273.018 251 269.445 251H37.3503C33.7777 251 30.4764 249.094 28.6901 246C26.9038 242.906 26.9038 239.094 28.6901 236L144.737 35C146.524 31.906 149.825 30 153.398 30ZM153.398 40L37.3503 241H269.445L153.398 40Z" fill="url(#paint3_linear_286_5907)"/>
<path fill-rule="evenodd" clip-rule="evenodd" d="M170.718 10L304.086 241C311.784 254.333 302.162 271 286.766 271H20.0298C4.63379 271 -4.98866 254.333 2.70933 241L136.077 9.99999C143.775 -3.33336 163.02 -3.3333 170.718 10ZM162.058 15C158.209 8.33334 148.587 8.33333 144.738 15L11.3696 246C7.52058 252.667 12.3318 261 20.0298 261H286.766C294.464 261 299.275 252.667 295.426 246L162.058 15Z" fill="url(#paint4_linear_286_5907)"/>
<path fill-rule="evenodd" clip-rule="evenodd" d="M153.397 211C173.832 211 190.397 194.435 190.397 174C190.397 153.565 173.832 137 153.397 137C132.963 137 116.397 153.565 116.397 174C116.397 194.435 132.963 211 153.397 211ZM171.86 193.701C167.031 198.228 160.538 201 153.397 201C138.486 201 126.397 188.912 126.397 174C126.397 159.088 138.486 147 153.397 147C160.538 147 167.031 149.772 171.86 154.299C170.735 154.102 169.578 154 168.397 154C157.352 154 148.397 162.954 148.397 174C148.397 185.046 157.352 194 168.397 194C169.578 194 170.735 193.898 171.86 193.701Z" fill="url(#paint5_linear_286_5907)"/>
<path fill-rule="evenodd" clip-rule="evenodd" d="M210.397 174C210.397 205.48 184.878 231 153.397 231C121.917 231 96.3975 205.48 96.3975 174C96.3975 142.52 121.917 117 153.397 117C184.878 117 210.397 142.52 210.397 174ZM200.397 174C200.397 199.957 179.355 221 153.397 221C127.44 221 106.397 199.957 106.397 174C106.397 148.043 127.44 127 153.397 127C179.355 127 200.397 148.043 200.397 174Z" fill="url(#paint6_linear_286_5907)"/>
<path fill-rule="evenodd" clip-rule="evenodd" d="M230.397 174C230.397 216.526 195.923 251 153.397 251C110.872 251 76.3975 216.526 76.3975 174C76.3975 131.474 110.872 97 153.397 97C195.923 97 230.397 131.474 230.397 174ZM220.397 174C220.397 211.003 190.401 241 153.397 241C116.394 241 86.3975 211.003 86.3975 174C86.3975 136.997 116.394 107 153.397 107C190.401 107 220.397 136.997 220.397 174Z" fill="url(#paint7_linear_286_5907)"/>
<path d="M153.29 261H153.507C153.435 261 153.362 261 153.29 261Z" fill="#40434B"/>
<path d="M112.9 251C107.598 248.212 102.567 244.867 97.8996 241H115.388C126.277 247.177 138.573 250.644 151.227 251H112.9Z" fill="#40434B"/>
<path d="M155.569 251H193.895C198.261 248.704 202.447 246.028 206.402 242.99C207.246 242.341 208.077 241.677 208.895 241H191.407C180.488 247.195 168.185 250.645 155.569 251Z" fill="#40434B"/>
<path d="M205.212 231H219.124C221.859 227.847 224.36 224.504 226.609 221H214.428C211.667 224.586 208.585 227.934 205.212 231Z" fill="#40434B"/>
<path d="M224.616 203.354L230.707 213.904C232.613 210.21 234.258 206.374 235.624 202.422L229.885 192.48L228.273 192.091C227.34 195.954 226.115 199.718 224.616 203.354Z" fill="#40434B"/>
<path d="M92.3669 221C95.1251 224.582 98.2062 227.93 101.583 231H87.6705C84.9336 227.844 82.4331 224.502 80.1853 221H92.3669Z" fill="#40434B"/>
<path d="M78.1268 190.372C79.097 194.833 80.4566 199.175 82.1789 203.354L76.0881 213.904C74.18 210.207 72.5353 206.37 71.1704 202.421L78.1268 190.372Z" fill="#40434B"/>
<defs>
<linearGradient id="paint0_linear_286_5907" x1="155.398" y1="-52.5" x2="129.372" y2="265.369" gradientUnits="userSpaceOnUse">
<stop stop-color="#656A76"/>
<stop offset="1" stop-color="#4A4E57"/>
</linearGradient>
<linearGradient id="paint1_linear_286_5907" x1="155.398" y1="-52.5" x2="129.372" y2="265.369" gradientUnits="userSpaceOnUse">
<stop stop-color="#656A76"/>
<stop offset="1" stop-color="#4A4E57"/>
</linearGradient>
<linearGradient id="paint2_linear_286_5907" x1="155.398" y1="-52.5" x2="129.372" y2="265.369" gradientUnits="userSpaceOnUse">
<stop stop-color="#656A76"/>
<stop offset="1" stop-color="#4A4E57"/>
</linearGradient>
<linearGradient id="paint3_linear_286_5907" x1="155.398" y1="-52.5" x2="129.372" y2="265.369" gradientUnits="userSpaceOnUse">
<stop stop-color="#656A76"/>
<stop offset="1" stop-color="#4A4E57"/>
</linearGradient>
<linearGradient id="paint4_linear_286_5907" x1="155.398" y1="-52.5" x2="129.372" y2="265.369" gradientUnits="userSpaceOnUse">
<stop stop-color="#656A76"/>
<stop offset="1" stop-color="#4A4E57"/>
</linearGradient>
<linearGradient id="paint5_linear_286_5907" x1="153" y1="87.5" x2="155.609" y2="265.725" gradientUnits="userSpaceOnUse">
<stop stop-color="#525260"/>
<stop offset="1" stop-color="#32323B"/>
</linearGradient>
<linearGradient id="paint6_linear_286_5907" x1="153" y1="87.5" x2="155.609" y2="265.725" gradientUnits="userSpaceOnUse">
<stop stop-color="#525260"/>
<stop offset="1" stop-color="#32323B"/>
</linearGradient>
<linearGradient id="paint7_linear_286_5907" x1="153" y1="87.5" x2="155.609" y2="265.725" gradientUnits="userSpaceOnUse">
<stop stop-color="#525260"/>
<stop offset="1" stop-color="#32323B"/>
</linearGradient>
</defs>
</svg>
