<svg width="58" height="58" viewBox="0 0 58 58" fill="none" xmlns="http://www.w3.org/2000/svg">
<path fill-rule="evenodd" clip-rule="evenodd" d="M39.6662 14H17.2318C13.7901 14 11 16.7901 11 20.2318V36.8499C11 40.2916 13.7901 43.0816 17.2318 43.0816H19.7175L19.7245 43.0816H22.2172H34.6808H37.1735L37.1804 43.0816H39.6662C43.1079 43.0816 45.898 40.2916 45.898 36.8499V20.2318C45.898 16.7901 43.1079 14 39.6662 14ZM37.867 42.2066C40.5223 41.8663 42.5744 39.5977 42.5744 36.8499V20.2318C42.5744 17.484 40.5223 15.2154 37.867 14.875C39.6908 15.9622 40.9125 17.9543 40.9125 20.2318V36.8499C40.9125 39.1273 39.6908 41.1195 37.867 42.2066ZM31.7726 14.8309L29.2799 14.8309V42.2507H34.6872C37.6671 42.2472 40.0816 39.8305 40.0816 36.8499V20.2318C40.0816 17.6779 38.3091 15.5381 35.9271 14.9754V30.6181L33.8498 28.5408L31.7726 30.6181V14.8309ZM22.2172 14.8309L28.449 14.8309V42.2507H22.2107C19.2309 42.2472 16.8163 39.8305 16.8163 36.8499V20.2318C16.8163 17.249 19.2344 14.8309 22.2172 14.8309ZM19.031 42.2066C17.2072 41.1195 15.9854 39.1273 15.9854 36.8499V20.2318C15.9854 17.9543 17.2071 15.9622 19.0309 14.875C16.3757 15.2154 14.3236 17.484 14.3236 20.2318V36.8499C14.3236 39.5977 16.3757 41.8663 19.031 42.2066ZM45.0671 36.8499C45.0671 39.5977 43.015 41.8663 40.3597 42.2066C42.1835 41.1195 43.4052 39.1273 43.4052 36.8499V20.2318C43.4052 17.9543 42.1835 15.9622 40.3597 14.875C43.015 15.2154 45.0671 17.484 45.0671 20.2318V36.8499ZM13.4927 20.2318C13.4927 17.9543 14.7144 15.9622 16.5382 14.875C13.883 15.2154 11.8309 17.484 11.8309 20.2318V36.8499C11.8309 39.5977 13.883 41.8662 16.5383 42.2066C14.7144 41.1195 13.4927 39.1273 13.4927 36.8499V20.2318Z" fill="white"/>
<g filter="url(#filter0_d_203_78)">
<path d="M17.3262 14H40.1005C43.5944 14 46.4267 16.7901 46.4267 20.2318V36.8499C46.4267 40.2916 43.5944 43.0816 40.1005 43.0816H17.3262C13.8323 43.0816 11 40.2916 11 36.8499V20.2318C11 16.7901 13.8323 14 17.3262 14Z" fill="white" fill-opacity="0.128742"/>
</g>
<defs>
<filter id="filter0_d_203_78" x="7" y="12" width="43.4267" height="37.0816" filterUnits="userSpaceOnUse" color-interpolation-filters="sRGB">
<feFlood flood-opacity="0" result="BackgroundImageFix"/>
<feColorMatrix in="SourceAlpha" type="matrix" values="0 0 0 0 0 0 0 0 0 0 0 0 0 0 0 0 0 0 127 0" result="hardAlpha"/>
<feOffset dy="2"/>
<feGaussianBlur stdDeviation="2"/>
<feColorMatrix type="matrix" values="0 0 0 0 0 0 0 0 0 0 0 0 0 0 0 0 0 0 0.0811025 0"/>
<feBlend mode="normal" in2="BackgroundImageFix" result="effect1_dropShadow_203_78"/>
<feBlend mode="normal" in="SourceGraphic" in2="effect1_dropShadow_203_78" result="shape"/>
</filter>
</defs>
</svg>
