<svg width="58" height="58" viewBox="0 0 58 58" fill="none" xmlns="http://www.w3.org/2000/svg">
<path fill-rule="evenodd" clip-rule="evenodd" d="M38.1542 43H44.0483L44.0508 32.587C44.0508 27.4751 42.9493 23.5457 36.9754 23.5457C35.8545 23.5041 34.7433 23.7672 33.7602 24.3072C32.777 24.8471 31.9588 25.6436 31.3925 26.6118H31.3133V24.0178H25.6549V42.9994H31.5491V33.6093C31.5491 31.1331 32.0188 28.735 35.0886 28.735C38.1149 28.735 38.1542 31.5684 38.1542 33.7695V43ZM17.104 20.8471C17.6665 21.2228 18.3279 21.4233 19.0044 21.4232C19.4535 21.4231 19.8983 21.3345 20.3133 21.1626C20.7282 20.9906 21.1053 20.7386 21.4228 20.4209C21.7404 20.1032 21.9922 19.7261 22.1641 19.3111C22.3359 18.8961 22.4243 18.4513 22.4242 18.0021C22.4241 17.3256 22.2233 16.6643 21.8474 16.1019C21.4715 15.5395 20.9372 15.1012 20.3121 14.8424C19.6871 14.5836 18.9993 14.516 18.3359 14.6481C17.6724 14.7802 17.063 15.1061 16.5847 15.5845C16.1064 16.063 15.7808 16.6725 15.6489 17.336C15.5171 17.9995 15.5849 18.6873 15.8439 19.3122C16.1029 19.9372 16.5414 20.4713 17.104 20.8471ZM16.0512 43H21.9514V24.0178H16.0512V43Z" fill="white"/>
</svg>
