<svg width="58" height="58" viewBox="0 0 58 58" fill="none" xmlns="http://www.w3.org/2000/svg">
<path fill-rule="evenodd" clip-rule="evenodd" d="M30.289 11.0583L29.0362 9.63721L27.6591 11.2134L27.5588 11.3311C26.3591 12.7499 25.3234 14.426 24.4758 16.2926C22.6785 15.0007 20.8015 14.01 18.9132 13.3773L17.1149 12.7747L16.7071 14.8302L16.6789 14.9822C16.3376 16.8605 16.2819 18.8869 16.4983 20.9858C14.2666 20.7555 12.1174 20.8332 10.1416 21.2344L8.28305 21.6118L8.95751 23.5959L9.00353 23.7264C10.5409 28.0325 13.9227 32.2563 18.4736 35.5896C17.7364 36.8349 17.1452 38.1065 16.7175 39.3832L16.1179 41.1737L17.9681 41.5494L18.1436 41.5841C19.0236 41.7535 19.937 41.8594 20.876 41.903C20.9227 42.9049 21.0401 43.8776 21.2298 44.8116L21.6056 46.662L23.3957 46.0622L23.5705 46.0026C24.3861 45.7197 25.1992 45.3702 26.0041 44.9587C26.5536 45.8238 27.1516 46.6259 27.7947 47.3553L29.0418 48.7699L30.2889 47.3552L30.4054 47.2218C31.0238 46.5057 31.5997 45.7218 32.1296 44.8789C33.0427 45.355 33.9665 45.7516 34.8931 46.062L36.6833 46.6618L37.059 44.8113L37.0937 44.6358C37.263 43.7557 37.3688 42.8421 37.4126 41.903C38.4143 41.8562 39.3868 41.7388 40.3206 41.5491L42.1708 41.1733L41.5711 39.3829L41.519 39.2297C41.0959 38.0045 40.5227 36.7849 39.8148 35.5896C44.4819 32.1711 47.9183 27.8169 49.3975 23.401L50 21.6025L47.9448 21.1946L47.7928 21.1663C45.9148 20.8251 43.8888 20.7693 41.7901 20.9857C42.0204 18.7537 41.9427 16.6042 41.5415 14.6281L41.1642 12.7693L39.1804 13.4438L39.036 13.4948C37.2076 14.1495 35.3942 15.1368 33.6579 16.405C32.7466 14.371 31.6131 12.5604 30.289 11.0583ZM29.0738 43.0633L29.1442 43.0118C29.6504 43.3826 30.1632 43.7296 30.6812 44.0514C30.1737 44.8519 29.6255 45.5874 29.0418 46.2495C28.4802 45.6125 27.9514 44.9076 27.4603 44.1423C28.0041 43.8099 28.5425 43.4498 29.0738 43.0633ZM24.197 41.8109L24.3319 41.7972C24.5903 42.3883 24.8674 42.9611 25.1624 43.5135C24.3963 43.9005 23.6284 44.2236 22.8655 44.4793C22.6997 43.6629 22.5939 42.8059 22.5485 41.9166C23.0918 41.9007 23.6418 41.8654 24.197 41.8109ZM33.698 41.9187L33.7606 41.7762C34.4283 41.8505 35.089 41.8974 35.7403 41.9164C35.6948 42.8058 35.589 43.6628 35.4233 44.4791C34.6068 44.2056 33.7846 43.8548 32.9651 43.4309C33.2234 42.9421 33.4679 42.4376 33.698 41.9187ZM27.0455 41.373L27.1081 41.3597C27.3291 41.5571 27.5518 41.7499 27.7762 41.938C27.3921 42.2077 27.0055 42.4619 26.6172 42.7C26.4209 42.331 26.2325 41.9511 26.0525 41.5611C26.3824 41.5048 26.7135 41.4421 27.0455 41.373ZM31.1689 41.37L31.1803 41.3599C31.4697 41.4208 31.7583 41.4768 32.0462 41.5279C31.877 41.896 31.7004 42.255 31.5166 42.6042C31.1804 42.394 30.8454 42.1718 30.5123 41.9382C30.7328 41.7533 30.9517 41.5639 31.1689 41.37ZM35.5321 38.2689L35.6027 38.2313C35.6844 38.9145 35.7354 39.587 35.7558 40.2459C35.3105 40.2322 34.8589 40.2044 34.402 40.1626C34.5877 39.6478 34.7602 39.1218 34.919 38.5856C35.1239 38.4823 35.3282 38.3768 35.5321 38.2689ZM22.682 38.2644L22.686 38.2315C22.8331 38.3097 22.9805 38.3868 23.1281 38.4627C23.2987 39.0475 23.4854 39.6205 23.6876 40.18C23.2985 40.2123 22.9134 40.2342 22.5329 40.2459C22.5529 39.5978 22.6025 38.9363 22.682 38.2644ZM19.8259 36.585L19.8488 36.5459C20.2642 36.82 20.688 37.0868 21.1196 37.3457C20.9763 38.3223 20.8902 39.2863 20.8625 40.2305C19.9733 40.185 19.1164 40.0792 18.3003 39.9135C18.6707 38.8075 19.1828 37.6912 19.8259 36.585ZM38.3164 36.6269L38.4398 36.5456C39.0937 37.6646 39.6136 38.7942 39.9885 39.9132C39.1723 40.079 38.3153 40.1848 37.4261 40.2301C37.3985 39.2862 37.3123 38.3222 37.1689 37.3457C37.5579 37.1123 37.9405 36.8726 38.3164 36.6269ZM32.6618 39.9393L32.7388 39.8601L32.7064 39.9466L32.6618 39.9393ZM10.4738 22.8704L10.6068 22.844C12.4731 22.4817 14.5478 22.4298 16.7316 22.6922L16.764 22.8793C17.3461 26.1714 18.5659 29.5826 20.3751 32.8364C20.0236 33.2796 19.6905 33.7286 19.3766 34.1823C14.9941 30.9519 11.8901 26.9419 10.5338 23.0468L10.4738 22.8704ZM37.9134 32.8363C39.7572 29.5203 40.9884 26.0415 41.5567 22.6923C43.7212 22.4321 45.7785 22.4808 47.6321 22.8344L47.8149 22.8707L47.7746 22.9892C46.4289 26.9023 43.316 30.9359 38.9119 34.1821C38.598 33.7284 38.2648 33.2794 37.9134 32.8363ZM18.4963 23.0632L18.4773 22.965C19.7125 23.2017 20.9731 23.5349 22.2421 23.9651C21.9809 25.6597 21.845 27.4166 21.845 29.2067C21.845 29.8349 21.8618 30.459 21.8948 31.0776C21.7724 31.208 21.6517 31.3391 21.5324 31.4709C20.0419 28.6679 19.0323 25.8044 18.4963 23.0632ZM39.713 22.984L39.8112 22.9652C39.2803 25.7361 38.2645 28.6344 36.756 31.4709C36.574 31.2696 36.3882 31.0699 36.1989 30.8719C36.225 30.3207 36.2382 29.7653 36.2382 29.2067C36.2382 27.44 36.1059 25.7058 35.8512 24.032C37.1526 23.5809 38.4459 23.2318 39.713 22.984ZM23.8358 24.5621L23.8368 24.5555C24.4256 24.792 25.0147 25.0493 25.6024 25.3276C25.4442 25.5859 25.2888 25.8471 25.1364 26.1112C24.5322 27.1577 23.9895 28.2221 23.5098 29.2951L23.5097 29.2067L23.5105 28.9676C23.5212 27.4552 23.633 25.9813 23.8358 24.5621ZM34.104 24.6976L34.2577 24.6343C34.4484 25.9916 34.556 27.3986 34.5717 28.841C34.1445 27.9219 33.671 27.01 33.1521 26.1112C32.9997 25.8472 32.8444 25.586 32.686 25.3276C33.1581 25.1041 33.631 24.8941 34.104 24.6976ZM25.1586 19.0676L25.1901 18.9782C26.1791 19.8269 27.1403 20.7794 28.0568 21.8269C27.5227 22.4945 27.008 23.191 26.5156 23.9141C25.7233 23.533 24.925 23.1864 24.1243 22.8749C24.3905 21.5432 24.7383 20.2692 25.1586 19.0676ZM32.8099 19.2294L32.9411 19.1145C33.3618 20.3249 33.7092 21.6082 33.9737 22.9497C33.2369 23.2416 32.5023 23.5632 31.7729 23.914C31.2805 23.191 30.7658 22.4945 30.2316 21.8269C31.0589 20.8815 31.9224 20.0135 32.8099 19.2294ZM39.7294 15.0203L39.9058 14.9603C40.2917 16.8612 40.3525 18.983 40.0838 21.2191C38.591 21.4725 37.0725 21.8576 35.5545 22.3701C35.2409 20.845 34.8233 19.3809 34.3102 18.0006C36.0814 16.6605 37.9178 15.6513 39.7294 15.0203ZM18.3467 15.143L18.383 14.9601C20.197 15.5679 22.0389 16.5572 23.8179 17.8805C23.2914 19.2767 22.8632 20.7598 22.5421 22.3059C21.0878 21.8254 19.6344 21.4618 18.2047 21.2192C17.9446 19.0545 17.9932 16.9968 18.3467 15.143ZM28.9193 12.3042L29.0418 12.164C30.3165 13.61 31.4223 15.4064 32.3028 17.4643C31.205 18.3809 30.1465 19.41 29.1443 20.5374C28.0959 19.3582 26.9862 18.2867 25.8343 17.339C26.6775 15.3991 27.7218 13.6956 28.9193 12.3042ZM29.2358 22.7424L32.3117 27.1891L33.5806 29.0128L34.0451 29.6773L34.1892 29.885L34.2619 29.9905L34.4087 30.2049L34.6322 30.535L34.7836 30.7608L34.9367 30.991L35.0917 31.2258L35.3275 31.5864L35.487 31.8325L35.6483 32.0831L35.8937 32.4675L36.0595 32.7294L36.2272 32.9959L36.4821 33.404L36.6543 33.6817L36.916 34.1068L37.0928 34.3959L37.2713 34.6894L37.5426 35.1383C35.8051 35.7945 34.1555 36.263 32.5937 36.5437L32.3223 36.9208L31.9443 37.4413L31.4086 38.173L30.8854 38.8826L30.0937 39.9493L29.1654 41.1936L28.0458 39.6735L27.5115 38.943L26.9071 38.1103L26.5784 37.6535L26.1797 37.0945L25.9973 36.8363L25.7851 36.5337L25.7794 36.5255C24.2468 36.2429 22.6299 35.7805 20.9289 35.1383L21.6778 33.9572L22.3052 32.9745L22.826 32.1648L23.1938 31.5971L23.4281 31.2373L23.8707 30.5629L24.1296 30.172L24.4224 29.7338L24.6514 29.3945L24.8609 29.0874L27.5699 25.1526L29.2358 22.7424ZM27.8601 36.8029L27.8648 36.8095L28.0298 37.039L28.2602 37.3582L28.8222 38.1315L29.173 38.6114L29.7921 37.7756L30.4319 36.9056L30.5005 36.8116C30.0715 36.843 29.65 36.8587 29.2358 36.8587C28.7859 36.8587 28.3273 36.8401 27.8601 36.8029ZM31.7137 35.1305C30.8538 35.258 30.0278 35.3214 29.2359 35.3213L29.1145 35.3208C28.3347 35.3144 27.5222 35.247 26.6772 35.1181C26.1967 34.391 25.7444 33.4566 25.3238 32.316L25.2883 32.2187L25.3754 32.1746C26.5589 31.5843 27.8175 31.283 29.1598 31.2683L29.2632 31.2677C30.6786 31.2677 32.0368 31.5845 33.3457 32.2217L33.353 32.2254L33.3325 32.276C32.9908 33.1097 32.56 33.9063 32.0398 34.6665L31.9185 34.841L31.7137 35.1305ZM33.8382 34.7024C34.2426 34.6006 34.6536 34.4862 35.0712 34.3591L35.2345 34.3087L35.0864 34.0707L34.9017 33.7756L34.7193 33.486L34.5802 33.2668C34.3609 33.7573 34.1136 34.2359 33.8382 34.7024ZM32.5728 30.254L31.7593 29.0879L30.078 26.665L29.235 25.4464L26.8857 28.8537L26.0495 30.0724L25.9039 30.2872C26.9734 29.9163 28.0943 29.7304 29.2632 29.7304C30.3972 29.7304 31.5013 29.9053 32.5728 30.254ZM24.0047 33.1741C24.2199 33.731 24.4444 34.2441 24.6788 34.7135C24.2576 34.6083 23.8291 34.4895 23.3935 34.3568L23.27 34.3189L23.5378 33.9001L24.0047 33.1741ZM30.6183 33.403C30.6183 34.244 29.9365 34.9258 29.0954 34.9258C28.2544 34.9258 27.5726 34.244 27.5726 33.403C27.5726 32.5619 28.2544 31.8801 29.0954 31.8801C29.9365 31.8801 30.6183 32.5619 30.6183 33.403Z" fill="white"/>
</svg>
